<?xml version="1.0" encoding="UTF-8"?>
<svg xmlns="http://www.w3.org/2000/svg" xmlns:xlink="http://www.w3.org/1999/xlink" width="40px" height="40px" viewBox="0 0 40 40" version="1.1">
<defs>
<clipPath id="clip1">
  <path d="M 0 0 L 39.855469 0 L 39.855469 39.601562 L 0 39.601562 Z M 0 0 "/>
</clipPath>
<clipPath id="clip2">
  <path d="M 0 0 L 39.855469 0 L 39.855469 35 L 0 35 Z M 0 0 "/>
</clipPath>
<clipPath id="clip3">
  <path d="M 8 2 L 39.855469 2 L 39.855469 37 L 8 37 Z M 8 2 "/>
</clipPath>
</defs>
<g id="surface1">
<path style=" stroke:none;fill-rule:nonzero;fill:rgb(100%,100%,100%);fill-opacity:1;" d="M 0 39.601562 L 39.855469 39.601562 L 39.855469 0 L 0 0 Z M 0 39.601562 "/>
<g clip-path="url(#clip1)" clip-rule="nonzero">
<path style="fill-rule:nonzero;fill:rgb(15.294118%,18.039216%,20%);fill-opacity:1;stroke-width:1;stroke-linecap:butt;stroke-linejoin:miter;stroke:rgb(15.294118%,18.039216%,20%);stroke-opacity:1;stroke-miterlimit:4;" d="M 0 22.176875 L 22.319062 22.176875 L 22.319062 -0.000000000000001421 L 0 -0.000000000000001421 Z M 0 22.176875 " transform="matrix(1.785714,0,0,1.785714,0,0.000000000000002538)"/>
</g>
<path style="fill-rule:nonzero;fill:rgb(25.490196%,29.411765%,31.372549%);fill-opacity:1;stroke-width:1;stroke-linecap:butt;stroke-linejoin:miter;stroke:rgb(25.490196%,29.411765%,31.372549%);stroke-opacity:1;stroke-miterlimit:4;" d="M 10.045 19.403125 L 12.27625 19.403125 L 12.27625 11.088438 L 10.045 11.088438 Z M 10.045 19.403125 " transform="matrix(1.785714,0,0,1.785714,0,0.000000000000002538)"/>
<path style=" stroke:none;fill-rule:nonzero;fill:rgb(65.490196%,75.294118%,50.196078%);fill-opacity:1;" d="M 19.929688 24.75 C 22.570312 24.75 25.105469 23.707031 26.972656 21.851562 C 28.84375 19.992188 29.894531 17.476562 29.894531 14.851562 C 29.894531 12.222656 28.84375 9.707031 26.972656 7.851562 C 25.105469 5.992188 22.570312 4.949219 19.929688 4.949219 C 17.285156 4.949219 14.75 5.992188 12.882812 7.851562 C 11.015625 9.707031 9.964844 12.222656 9.964844 14.851562 C 9.964844 17.476562 11.015625 19.992188 12.882812 21.851562 C 14.75 23.707031 17.285156 24.75 19.929688 24.75 Z M 19.929688 24.75 "/>
<g clip-path="url(#clip2)" clip-rule="nonzero">
<path style="fill:none;stroke-width:1;stroke-linecap:butt;stroke-linejoin:miter;stroke:rgb(65.490196%,75.294118%,50.196078%);stroke-opacity:1;stroke-miterlimit:4;" d="M 11.160625 13.86 C 12.639375 13.86 14.059062 13.275938 15.104687 12.236875 C 16.1525 11.195625 16.740937 9.786875 16.740937 8.316875 C 16.740937 6.844688 16.1525 5.435937 15.104687 4.396875 C 14.059062 3.355625 12.639375 2.771562 11.160625 2.771562 C 9.679687 2.771562 8.26 3.355625 7.214375 4.396875 C 6.16875 5.435937 5.580312 6.844688 5.580312 8.316875 C 5.580312 9.786875 6.16875 11.195625 7.214375 12.236875 C 8.26 13.275938 9.679687 13.86 11.160625 13.86 Z M 11.160625 13.86 " transform="matrix(1.785714,0,0,1.785714,0,0.000000000000002538)"/>
</g>
<path style="fill-rule:nonzero;fill:rgb(51.372549%,75.294118%,57.254902%);fill-opacity:1;stroke-width:1;stroke-linecap:butt;stroke-linejoin:miter;stroke:rgb(51.372549%,75.294118%,57.254902%);stroke-opacity:1;stroke-miterlimit:4;" d="M 7.811562 14.969063 C 8.848437 14.969063 9.841562 14.56 10.574375 13.831563 C 11.307187 13.105313 11.718437 12.116563 11.718437 11.088438 C 11.718437 10.058125 11.307187 9.071563 10.574375 8.343125 C 9.841562 7.616875 8.848437 7.207813 7.811562 7.207813 C 6.776875 7.207813 5.781562 7.616875 5.050937 8.343125 C 4.318125 9.071563 3.906875 10.058125 3.906875 11.088438 C 3.906875 12.116563 4.318125 13.105313 5.050937 13.831563 C 5.781562 14.56 6.776875 14.969063 7.811562 14.969063 Z M 7.811562 14.969063 " transform="matrix(1.785714,0,0,1.785714,0,0.000000000000002538)"/>
<path style=" stroke:none;fill-rule:nonzero;fill:rgb(51.372549%,75.294118%,57.254902%);fill-opacity:1;" d="M 25.90625 26.730469 C 27.757812 26.730469 29.53125 26 30.839844 24.699219 C 32.148438 23.402344 32.882812 21.636719 32.882812 19.800781 C 32.882812 17.960938 32.148438 16.199219 30.839844 14.898438 C 29.53125 13.601562 27.757812 12.871094 25.90625 12.871094 C 24.058594 12.871094 22.28125 13.601562 20.976562 14.898438 C 19.667969 16.199219 18.933594 17.960938 18.933594 19.800781 C 18.933594 21.636719 19.667969 23.402344 20.976562 24.699219 C 22.28125 26 24.058594 26.730469 25.90625 26.730469 Z M 25.90625 26.730469 "/>
<g clip-path="url(#clip3)" clip-rule="nonzero">
<path style="fill:none;stroke-width:1;stroke-linecap:butt;stroke-linejoin:miter;stroke:rgb(51.372549%,75.294118%,57.254902%);stroke-opacity:1;stroke-miterlimit:4;" d="M 14.5075 14.969063 C 15.544375 14.969063 16.5375 14.56 17.270312 13.831563 C 18.003125 13.105313 18.414375 12.116563 18.414375 11.088438 C 18.414375 10.058125 18.003125 9.071563 17.270312 8.343125 C 16.5375 7.616875 15.544375 7.207813 14.5075 7.207813 C 13.472812 7.207813 12.4775 7.616875 11.746875 8.343125 C 11.014062 9.071563 10.602812 10.058125 10.602812 11.088438 C 10.602812 12.116563 11.014062 13.105313 11.746875 13.831563 C 12.4775 14.56 13.472812 14.969063 14.5075 14.969063 Z M 14.5075 14.969063 " transform="matrix(1.785714,0,0,1.785714,0,0.000000000000002538)"/>
</g>
</g>
</svg>
